<svg xmlns="http://www.w3.org/2000/svg" xmlns:xlink="http://www.w3.org/1999/xlink" width="500" zoomAndPan="magnify" viewBox="0 0 375 374.999991" height="500" preserveAspectRatio="xMidYMid meet" version="1.0"><defs><g/><clipPath id="66eb331a8f"><path d="M 128 97.84375 L 247 97.84375 L 247 136 L 128 136 Z M 128 97.84375 " clip-rule="nonzero"/></clipPath><clipPath id="02fd60e5a7"><path d="M 112.5 213 L 262.5 213 L 262.5 223.09375 L 112.5 223.09375 Z M 112.5 213 " clip-rule="nonzero"/></clipPath></defs><g clip-path="url(#66eb331a8f)"><path fill="#000000" d="M 128.707031 135.25 C 128.65625 135.839844 128.847656 135.78125 129.347656 135.773438 C 148.761719 135.738281 168.175781 135.765625 187.589844 135.757812 C 187.589844 135.753906 187.589844 135.753906 187.589844 135.753906 C 207.078125 135.753906 226.570312 135.753906 246.058594 135.761719 C 246.359375 135.761719 246.386719 135.738281 246.398438 135.453125 C 246.394531 132.519531 246.382812 129.578125 246.394531 126.640625 C 246.410156 124.808594 244.851562 123.449219 243.292969 122.792969 C 226.882812 115.390625 210.460938 108.015625 194.054688 100.601562 C 192.160156 99.742188 190.261719 98.878906 188.371094 98.007812 C 188.109375 97.886719 187.890625 97.878906 187.625 98 C 177.503906 102.492188 167.394531 107.015625 157.273438 111.507812 C 148.5 115.484375 139.625 119.234375 130.902344 123.304688 C 129.730469 123.96875 128.6875 125.128906 128.695312 126.546875 C 128.714844 129.449219 128.703125 132.347656 128.707031 135.25 Z M 144.445312 127.585938 C 158.304688 120.707031 172.253906 113.984375 186.175781 107.222656 C 186.921875 106.882812 187.773438 107.085938 188.566406 107.035156 C 189.003906 107.03125 189.417969 107.128906 189.816406 107.324219 C 190.957031 107.890625 192.101562 108.453125 193.25 109.019531 C 205.75 115.195312 218.28125 121.3125 230.753906 127.539062 C 202.445312 127.851562 172.832031 127.800781 144.445312 127.585938 Z M 144.445312 127.585938 " fill-opacity="1" fill-rule="nonzero"/></g><g clip-path="url(#02fd60e5a7)"><path fill="#000000" d="M 262.429688 222.371094 C 262.425781 219.414062 262.429688 216.457031 262.425781 213.5 C 262.417969 213.238281 262.390625 213.199219 262.136719 213.195312 C 219.214844 213.160156 176.292969 213.214844 133.371094 213.183594 C 126.628906 213.179688 119.890625 213.171875 113.148438 213.171875 C 112.503906 213.171875 112.496094 213.09375 112.5 213.808594 C 112.507812 215.464844 112.507812 217.125 112.511719 218.78125 C 112.515625 220.101562 112.527344 221.417969 112.535156 222.738281 C 112.539062 223.015625 112.570312 223.050781 112.867188 223.050781 C 137.726562 222.949219 162.585938 223.035156 187.445312 223.007812 C 187.445312 223.003906 187.445312 223.003906 187.445312 223 C 212.285156 223 237.125 222.996094 261.964844 223.015625 C 262.488281 223.085938 262.441406 222.800781 262.429688 222.371094 Z M 262.429688 222.371094 " fill-opacity="1" fill-rule="nonzero"/></g><path fill="#000000" d="M 121.945312 210.324219 C 121.945312 210.925781 121.90625 210.917969 122.519531 210.917969 C 144.207031 210.882812 165.894531 210.90625 187.582031 210.902344 C 187.582031 210.902344 187.582031 210.898438 187.582031 210.898438 C 209.304688 210.898438 231.03125 210.902344 252.753906 210.902344 C 253.25 210.941406 253.195312 210.777344 253.199219 210.355469 C 253.195312 207.457031 253.207031 204.554688 253.191406 201.65625 C 253.179688 201.480469 253.132812 201.421875 252.953125 201.417969 C 237.160156 201.382812 221.367188 201.417969 205.578125 201.40625 C 177.902344 201.40625 150.222656 201.398438 122.546875 201.40625 C 121.890625 201.40625 121.941406 201.363281 121.941406 202.019531 C 121.941406 204.789062 121.941406 207.558594 121.945312 210.324219 Z M 121.945312 210.324219 " fill-opacity="1" fill-rule="nonzero"/><path fill="#000000" d="M 244.039062 146.585938 C 244.378906 146.605469 244.246094 146.164062 244.273438 145.941406 C 244.277344 144.886719 244.28125 143.832031 244.28125 142.78125 C 244.28125 141.40625 244.28125 140.03125 244.277344 138.65625 C 244.273438 138.300781 244.253906 138.28125 243.886719 138.28125 C 225.113281 138.359375 206.339844 138.289062 187.566406 138.3125 C 187.566406 138.3125 187.566406 138.320312 187.566406 138.320312 C 168.832031 138.320312 150.09375 138.339844 131.359375 138.277344 C 130.816406 138.277344 130.8125 138.242188 130.8125 138.839844 C 130.828125 141.359375 130.816406 143.886719 130.839844 146.40625 C 130.84375 146.511719 130.898438 146.585938 131.007812 146.589844 C 168.683594 146.59375 206.363281 146.597656 244.039062 146.585938 Z M 244.039062 146.585938 " fill-opacity="1" fill-rule="nonzero"/><path fill="#000000" d="M 221.558594 166.203125 C 221.496094 160.59375 221.472656 154.980469 221.398438 149.371094 C 221.390625 149.261719 221.328125 149.203125 221.21875 149.199219 C 218.367188 149.1875 215.515625 149.203125 212.660156 149.203125 C 212.457031 149.214844 212.113281 149.128906 212.140625 149.4375 C 212.0625 154.523438 212.050781 159.605469 211.996094 164.6875 C 211.921875 175.417969 211.757812 186.148438 211.71875 196.878906 C 211.722656 197.011719 211.777344 197.089844 211.914062 197.097656 C 215.070312 197.125 218.222656 197.097656 221.375 197.105469 C 221.957031 197.175781 221.832031 196.867188 221.84375 196.417969 C 221.75 188.683594 221.699219 180.945312 221.625 173.207031 C 221.632812 173.207031 221.640625 173.207031 221.652344 173.207031 C 221.617188 170.871094 221.578125 168.539062 221.558594 166.203125 Z M 221.558594 166.203125 " fill-opacity="1" fill-rule="nonzero"/><path fill="#000000" d="M 172.453125 191.679688 C 172.441406 193.375 172.4375 195.070312 172.4375 196.761719 C 172.363281 197.234375 172.785156 197.066406 173.085938 197.101562 C 176.164062 197.101562 179.242188 197.105469 182.320312 197.101562 C 182.453125 197.101562 182.535156 197.042969 182.539062 196.90625 C 182.421875 183.347656 182.289062 169.789062 182.136719 156.234375 C 182.113281 154.085938 182.109375 151.941406 182.089844 149.796875 C 182.085938 149.167969 182.128906 149.203125 181.519531 149.207031 C 178.871094 149.207031 176.226562 149.207031 173.578125 149.207031 C 172.78125 149.207031 172.871094 149.097656 172.867188 149.9375 C 172.867188 157.695312 172.753906 165.453125 172.652344 173.210938 C 172.652344 173.210938 172.652344 173.210938 172.65625 173.210938 C 172.566406 179.367188 172.492188 185.523438 172.453125 191.679688 Z M 172.453125 191.679688 " fill-opacity="1" fill-rule="nonzero"/><path fill="#000000" d="M 162.445312 149.78125 C 162.441406 149.113281 162.425781 149.203125 161.855469 149.203125 C 159.191406 149.203125 156.523438 149.207031 153.859375 149.210938 C 153.222656 149.210938 153.253906 149.121094 153.25 149.8125 C 153.179688 157.640625 153.132812 165.296875 153.082031 173.199219 C 152.941406 180.890625 152.890625 188.800781 152.828125 196.53125 C 152.824219 197.125 152.800781 197.085938 153.375 197.09375 C 156.472656 197.09375 159.574219 197.101562 162.671875 197.097656 C 162.804688 197.097656 162.882812 197.027344 162.886719 196.894531 C 162.878906 192.640625 162.78125 188.382812 162.746094 184.128906 C 162.617188 172.683594 162.480469 161.230469 162.445312 149.78125 Z M 162.445312 149.78125 " fill-opacity="1" fill-rule="nonzero"/><path fill="#000000" d="M 192.1875 189.859375 C 192.167969 192.003906 192.144531 194.152344 192.140625 196.292969 C 192.140625 197.210938 191.992188 197.101562 192.945312 197.101562 C 195.777344 197.109375 198.613281 197.101562 201.445312 197.101562 C 202.230469 197.101562 202.152344 197.199219 202.148438 196.421875 C 202.074219 181.007812 201.824219 165.59375 201.703125 150.175781 C 201.699219 149.910156 201.695312 149.648438 201.6875 149.386719 C 201.664062 149.109375 201.296875 149.234375 201.113281 149.203125 C 198.429688 149.203125 195.746094 149.207031 193.058594 149.207031 C 192.566406 149.207031 192.578125 149.191406 192.570312 149.707031 C 192.503906 157.519531 192.421875 165.332031 192.34375 173.140625 C 192.347656 173.140625 192.355469 173.140625 192.359375 173.140625 C 192.292969 178.714844 192.230469 184.285156 192.1875 189.859375 Z M 192.1875 189.859375 " fill-opacity="1" fill-rule="nonzero"/><path fill="#000000" d="M 241.058594 166.757812 C 241.003906 161.089844 240.949219 155.425781 240.894531 149.757812 C 240.886719 149.167969 240.910156 149.199219 240.34375 149.199219 C 237.640625 149.203125 234.9375 149.203125 232.234375 149.203125 C 232.070312 149.207031 231.785156 149.148438 231.777344 149.382812 C 231.742188 151.566406 231.734375 153.75 231.707031 155.933594 C 231.53125 169.429688 231.464844 182.925781 231.34375 196.425781 C 231.339844 197.183594 231.246094 197.109375 232.046875 197.109375 C 235.070312 197.109375 238.09375 197.113281 241.113281 197.101562 C 241.289062 197.089844 241.332031 197.046875 241.34375 196.859375 C 241.375 188.96875 241.214844 181.082031 241.121094 173.195312 C 241.125 173.195312 241.128906 173.195312 241.132812 173.195312 C 241.109375 171.050781 241.082031 168.902344 241.058594 166.757812 Z M 241.058594 166.757812 " fill-opacity="1" fill-rule="nonzero"/><path fill="#000000" d="M 143.039062 174.929688 C 142.96875 166.570312 142.886719 158.210938 142.820312 149.851562 C 142.8125 149.121094 142.839844 149.203125 142.1875 149.203125 C 139.539062 149.203125 136.890625 149.207031 134.246094 149.207031 C 133.597656 149.207031 133.644531 149.148438 133.632812 149.820312 C 133.539062 165.425781 133.335938 180.894531 133.289062 196.421875 C 133.285156 197.1875 133.203125 197.105469 133.988281 197.105469 C 136.972656 197.109375 139.957031 197.101562 142.945312 197.101562 C 143.179688 197.097656 143.210938 197.066406 143.21875 196.851562 C 143.148438 189.542969 143.089844 182.234375 143.039062 174.929688 Z M 143.039062 174.929688 " fill-opacity="1" fill-rule="nonzero"/><g fill="#000000" fill-opacity="1"><g transform="translate(100.155558, 245.909192)"><g><path d="M 1.625 -16.171875 L 8.578125 -16.171875 C 11.117188 -16.171875 13.1875 -15.421875 14.78125 -13.921875 C 16.375 -12.429688 17.171875 -10.488281 17.171875 -8.09375 C 17.171875 -5.695312 16.359375 -3.75 14.734375 -2.25 C 13.117188 -0.75 11.007812 0 8.40625 0 L 1.625 0 Z M 5.734375 -12.890625 L 5.734375 -3.28125 L 8.671875 -3.28125 C 9.929688 -3.28125 10.960938 -3.722656 11.765625 -4.609375 C 12.578125 -5.492188 12.984375 -6.644531 12.984375 -8.0625 C 12.984375 -9.476562 12.5625 -10.632812 11.71875 -11.53125 C 10.875 -12.4375 9.796875 -12.890625 8.484375 -12.890625 Z M 5.734375 -12.890625 "/></g></g></g><g fill="#000000" fill-opacity="1"><g transform="translate(117.8714, 245.909192)"><g><path d="M 5.734375 0 L 1.625 0 L 1.625 -16.171875 L 5.734375 -16.171875 Z M 5.734375 0 "/></g></g></g><g fill="#000000" fill-opacity="1"><g transform="translate(125.216424, 245.909192)"><g><path d="M 12.359375 -8.234375 L 15.921875 -8.234375 L 15.921875 -1.921875 C 15.046875 -1.304688 13.988281 -0.800781 12.75 -0.40625 C 11.507812 -0.0078125 10.328125 0.1875 9.203125 0.1875 C 6.734375 0.1875 4.671875 -0.597656 3.015625 -2.171875 C 1.367188 -3.753906 0.546875 -5.726562 0.546875 -8.09375 C 0.546875 -10.425781 1.394531 -12.378906 3.09375 -13.953125 C 4.789062 -15.523438 6.914062 -16.3125 9.46875 -16.3125 C 10.675781 -16.3125 11.875 -16.09375 13.0625 -15.65625 C 14.25 -15.226562 15.253906 -14.644531 16.078125 -13.90625 L 13.765625 -11.109375 C 13.179688 -11.648438 12.503906 -12.078125 11.734375 -12.390625 C 10.960938 -12.710938 10.203125 -12.875 9.453125 -12.875 C 8.128906 -12.875 7.015625 -12.414062 6.109375 -11.5 C 5.210938 -10.582031 4.765625 -9.445312 4.765625 -8.09375 C 4.765625 -6.71875 5.21875 -5.566406 6.125 -4.640625 C 7.03125 -3.722656 8.15625 -3.265625 9.5 -3.265625 C 10.363281 -3.265625 11.316406 -3.523438 12.359375 -4.046875 Z M 12.359375 -8.234375 "/></g></g></g><g fill="#000000" fill-opacity="1"><g transform="translate(142.377926, 245.909192)"><g><path d="M 5.734375 0 L 1.625 0 L 1.625 -16.171875 L 5.734375 -16.171875 Z M 5.734375 0 "/></g></g></g><g fill="#000000" fill-opacity="1"><g transform="translate(149.722949, 245.909192)"><g><path d="M 13.609375 -12.9375 L 5.734375 -12.9375 L 5.734375 -9.203125 L 12.984375 -9.203125 L 12.984375 -5.96875 L 5.734375 -5.96875 L 5.734375 0 L 1.625 0 L 1.625 -16.171875 L 13.609375 -16.171875 Z M 13.609375 -12.9375 "/></g></g></g><g fill="#000000" fill-opacity="1"><g transform="translate(163.67388, 245.909192)"><g><path d="M 5.734375 0 L 1.625 0 L 1.625 -16.171875 L 5.734375 -16.171875 Z M 5.734375 0 "/></g></g></g><g fill="#000000" fill-opacity="1"><g transform="translate(171.018904, 245.909192)"><g><path d="M 16.546875 0 L 12.921875 0 L 5.484375 -9.953125 L 5.484375 0 L 1.625 0 L 1.625 -16.171875 L 5.25 -16.171875 L 12.703125 -6.1875 L 12.703125 -16.171875 L 16.546875 -16.171875 Z M 16.546875 0 "/></g></g></g><g fill="#000000" fill-opacity="1"><g transform="translate(189.173592, 245.909192)"><g><path d="M 16.546875 0 L 12.921875 0 L 5.484375 -9.953125 L 5.484375 0 L 1.625 0 L 1.625 -16.171875 L 5.25 -16.171875 L 12.703125 -6.1875 L 12.703125 -16.171875 L 16.546875 -16.171875 Z M 16.546875 0 "/></g></g></g><g fill="#000000" fill-opacity="1"><g transform="translate(207.328281, 245.909192)"><g><path d="M 12.359375 -2.984375 L 5.296875 -2.984375 L 4.109375 0 L -0.109375 0 L 6.859375 -16.171875 L 11.09375 -16.171875 L 17.90625 0 L 13.515625 0 Z M 11.15625 -6.09375 L 8.84375 -12.09375 L 6.5 -6.09375 Z M 11.15625 -6.09375 "/></g></g></g><g fill="#000000" fill-opacity="1"><g transform="translate(225.113416, 245.909192)"><g><path d="M 16.546875 0 L 12.921875 0 L 5.484375 -9.953125 L 5.484375 0 L 1.625 0 L 1.625 -16.171875 L 5.25 -16.171875 L 12.703125 -6.1875 L 12.703125 -16.171875 L 16.546875 -16.171875 Z M 16.546875 0 "/></g></g></g><g fill="#000000" fill-opacity="1"><g transform="translate(243.268105, 245.909192)"><g><path d="M 9.203125 -16.3125 C 10.398438 -16.3125 11.578125 -16.066406 12.734375 -15.578125 C 13.898438 -15.085938 14.894531 -14.425781 15.71875 -13.59375 L 13.328125 -10.765625 C 12.804688 -11.410156 12.179688 -11.921875 11.453125 -12.296875 C 10.722656 -12.679688 9.992188 -12.875 9.265625 -12.875 C 7.984375 -12.875 6.910156 -12.421875 6.046875 -11.515625 C 5.191406 -10.617188 4.765625 -9.507812 4.765625 -8.1875 C 4.765625 -6.820312 5.191406 -5.6875 6.046875 -4.78125 C 6.910156 -3.875 7.984375 -3.421875 9.265625 -3.421875 C 9.941406 -3.421875 10.644531 -3.585938 11.375 -3.921875 C 12.113281 -4.265625 12.765625 -4.726562 13.328125 -5.3125 L 15.734375 -2.765625 C 14.859375 -1.878906 13.820312 -1.164062 12.625 -0.625 C 11.4375 -0.0820312 10.25 0.1875 9.0625 0.1875 C 6.625 0.1875 4.59375 -0.601562 2.96875 -2.1875 C 1.351562 -3.78125 0.546875 -5.765625 0.546875 -8.140625 C 0.546875 -10.460938 1.367188 -12.40625 3.015625 -13.96875 C 4.671875 -15.53125 6.734375 -16.3125 9.203125 -16.3125 Z M 9.203125 -16.3125 "/></g></g></g><g fill="#000000" fill-opacity="1"><g transform="translate(259.251621, 245.909192)"><g><path d="M 14.28125 -12.9375 L 5.734375 -12.9375 L 5.734375 -9.734375 L 13.453125 -9.734375 L 13.453125 -6.5 L 5.734375 -6.5 L 5.734375 -3.234375 L 14.53125 -3.234375 L 14.53125 0 L 1.625 0 L 1.625 -16.171875 L 14.28125 -16.171875 Z M 14.28125 -12.9375 "/></g></g></g><g fill="#000000" fill-opacity="1"><g transform="translate(121.125261, 281.494611)"><g><path d="M 4.328125 0.109375 C 3.515625 0.117188 2.8125 -0.0234375 2.21875 -0.328125 C 1.632812 -0.640625 1.179688 -1.085938 0.859375 -1.671875 C 0.546875 -2.253906 0.390625 -2.953125 0.390625 -3.765625 C 0.390625 -4.578125 0.554688 -5.296875 0.890625 -5.921875 C 1.222656 -6.546875 1.691406 -7.035156 2.296875 -7.390625 C 2.910156 -7.742188 3.640625 -7.921875 4.484375 -7.921875 C 5.222656 -7.921875 5.867188 -7.757812 6.421875 -7.4375 C 6.984375 -7.113281 7.414062 -6.660156 7.71875 -6.078125 C 8.03125 -5.503906 8.1875 -4.832031 8.1875 -4.0625 C 8.1875 -3.226562 8.019531 -2.5 7.6875 -1.875 C 7.363281 -1.25 6.910156 -0.765625 6.328125 -0.421875 C 5.742188 -0.078125 5.078125 0.0976562 4.328125 0.109375 Z M 4.265625 -1.484375 C 4.890625 -1.484375 5.394531 -1.707031 5.78125 -2.15625 C 6.175781 -2.613281 6.375 -3.238281 6.375 -4.03125 C 6.375 -4.726562 6.195312 -5.285156 5.84375 -5.703125 C 5.488281 -6.117188 5.015625 -6.328125 4.421875 -6.328125 C 3.984375 -6.328125 3.597656 -6.21875 3.265625 -6 C 2.941406 -5.789062 2.6875 -5.492188 2.5 -5.109375 C 2.3125 -4.734375 2.21875 -4.296875 2.21875 -3.796875 C 2.21875 -3.054688 2.398438 -2.484375 2.765625 -2.078125 C 3.128906 -1.679688 3.628906 -1.484375 4.265625 -1.484375 Z M 4.265625 -1.484375 "/></g></g></g><g fill="#000000" fill-opacity="1"><g transform="translate(135.606207, 281.494611)"><g><path d="M 5.796875 -7.8125 L 7.53125 -7.8125 L 7.53125 0 L 5.921875 0 L 2.46875 -4.84375 L 2.46875 0 L 0.734375 0 L 0.734375 -7.8125 L 2.328125 -7.8125 L 5.796875 -2.953125 Z M 5.796875 -7.8125 "/></g></g></g><g fill="#000000" fill-opacity="1"><g transform="translate(149.757381, 281.494611)"><g><path d="M 0.734375 0 L 0.734375 -7.8125 L 2.53125 -7.8125 L 2.53125 -1.578125 L 5.90625 -1.578125 L 5.796875 0 Z M 0.734375 0 "/></g></g></g><g fill="#000000" fill-opacity="1"><g transform="translate(161.501256, 281.494611)"><g><path d="M 0.734375 0 L 0.734375 -7.8125 L 2.53125 -7.8125 L 2.53125 0 Z M 0.734375 0 "/></g></g></g><g fill="#000000" fill-opacity="1"><g transform="translate(170.661959, 281.494611)"><g><path d="M 5.796875 -7.8125 L 7.53125 -7.8125 L 7.53125 0 L 5.921875 0 L 2.46875 -4.84375 L 2.46875 0 L 0.734375 0 L 0.734375 -7.8125 L 2.328125 -7.8125 L 5.796875 -2.953125 Z M 5.796875 -7.8125 "/></g></g></g><g fill="#000000" fill-opacity="1"><g transform="translate(184.813133, 281.494611)"><g><path d="M 6.078125 -6.265625 L 2.5 -6.265625 L 2.5 -4.703125 L 5.859375 -4.703125 L 5.859375 -3.15625 L 2.5 -3.15625 L 2.5 -1.546875 L 6.1875 -1.546875 L 6.078125 0 L 0.734375 0 L 0.734375 -7.8125 L 6.078125 -7.8125 Z M 6.078125 -6.265625 "/></g></g></g><g fill="#000000" fill-opacity="1"><g transform="translate(197.073651, 281.494611)"><g/></g></g><g fill="#000000" fill-opacity="1"><g transform="translate(205.739706, 281.494611)"><g><path d="M 0.734375 0 L 0.734375 -7.8125 L 3.65625 -7.8125 C 4.601562 -7.8125 5.347656 -7.625 5.890625 -7.25 C 6.441406 -6.882812 6.71875 -6.34375 6.71875 -5.625 C 6.71875 -5.28125 6.632812 -4.957031 6.46875 -4.65625 C 6.3125 -4.363281 6.09375 -4.132812 5.8125 -3.96875 C 6.125 -3.820312 6.378906 -3.601562 6.578125 -3.3125 C 6.773438 -3.019531 6.875 -2.675781 6.875 -2.28125 C 6.875 -1.832031 6.753906 -1.4375 6.515625 -1.09375 C 6.273438 -0.75 5.929688 -0.476562 5.484375 -0.28125 C 5.035156 -0.09375 4.503906 0 3.890625 0 Z M 3.703125 -6.34375 L 2.5 -6.34375 L 2.5 -4.65625 L 3.59375 -4.65625 C 4.050781 -4.65625 4.382812 -4.722656 4.59375 -4.859375 C 4.8125 -5.003906 4.921875 -5.226562 4.921875 -5.53125 C 4.921875 -5.800781 4.820312 -6.003906 4.625 -6.140625 C 4.425781 -6.273438 4.117188 -6.34375 3.703125 -6.34375 Z M 2.5 -1.46875 L 3.859375 -1.46875 C 4.242188 -1.46875 4.539062 -1.535156 4.75 -1.671875 C 4.96875 -1.816406 5.078125 -2.046875 5.078125 -2.359375 C 5.078125 -2.648438 4.984375 -2.859375 4.796875 -2.984375 C 4.609375 -3.117188 4.296875 -3.1875 3.859375 -3.1875 L 2.5 -3.1875 Z M 2.5 -1.46875 "/></g></g></g><g fill="#000000" fill-opacity="1"><g transform="translate(218.747695, 281.494611)"><g><path d="M -0.265625 0 L 3.125 -7.8125 L 4.625 -7.8125 L 7.890625 0 L 6.0625 0 L 5.4375 -1.59375 L 2.21875 -1.59375 L 1.5625 0 Z M 2.828125 -3.09375 L 4.84375 -3.09375 L 3.84375 -5.609375 Z M 2.828125 -3.09375 "/></g></g></g><g fill="#000000" fill-opacity="1"><g transform="translate(232.305292, 281.494611)"><g><path d="M 5.796875 -7.8125 L 7.53125 -7.8125 L 7.53125 0 L 5.921875 0 L 2.46875 -4.84375 L 2.46875 0 L 0.734375 0 L 0.734375 -7.8125 L 2.328125 -7.8125 L 5.796875 -2.953125 Z M 5.796875 -7.8125 "/></g></g></g><g fill="#000000" fill-opacity="1"><g transform="translate(246.45646, 281.494611)"><g><path d="M 0.734375 0 L 0.734375 -7.8125 L 2.53125 -7.8125 L 2.53125 -4.4375 L 5.5625 -7.8125 L 7.71875 -7.8125 L 4.171875 -3.90625 C 4.335938 -3.8125 4.488281 -3.695312 4.625 -3.5625 C 4.757812 -3.425781 4.882812 -3.273438 5 -3.109375 L 5.671875 -2.015625 C 5.796875 -1.816406 5.925781 -1.675781 6.0625 -1.59375 C 6.207031 -1.507812 6.382812 -1.46875 6.59375 -1.46875 C 6.726562 -1.46875 6.859375 -1.484375 6.984375 -1.515625 C 7.109375 -1.546875 7.234375 -1.601562 7.359375 -1.6875 L 7.765625 -0.296875 C 7.609375 -0.171875 7.40625 -0.0703125 7.15625 0 C 6.90625 0.0703125 6.644531 0.109375 6.375 0.109375 C 5.40625 0.109375 4.6875 -0.269531 4.21875 -1.03125 L 3.28125 -2.53125 C 3.175781 -2.707031 3.066406 -2.835938 2.953125 -2.921875 C 2.847656 -3.015625 2.707031 -3.078125 2.53125 -3.109375 L 2.53125 0 Z M 0.734375 0 "/></g></g></g></svg>